# xmcd
#
# Track frame offsets:
#	150
#	20750
#	63923
#	92110
#	127919
#	141881
#	150544
#	156551
#	172955
#	228363
#
# Disc length: 3238 seconds
#
# Revision: 2
# Processed by: cddbd v1.5.2PL0 Copyright (c) Steve Scherf et al.
# Submitted via: EasyCDDAExtractor 2011.0.0.0
#
DISCID=7d0ca40a
DTITLE=Korean Traditional Music - 거문고 앙상블 연주집
DYEAR=1900
DGENRE=Country
TTITLE0=거문고 양금 병주 - 취타
TTITLE1=황병기 작곡 - 침향무
TTITLE2=김용실 작곡 - 출강
TTITLE3=박예섭 작곡 - 첫봉화
TTITLE4=이성천 작곡 - 소리의 탄생 1
TTITLE5=이성천 작곡 - 소리의 탄생 2
TTITLE6=이성천 작곡 - 소리의 탄생 3
TTITLE7=이성천 작곡 - 소리의 탄생 4
TTITLE8=이재화 작곡 - 도다가 2000
TTITLE9=거문고 삼중주 - 하현도드리
EXTD=
EXTT0=
EXTT1=
EXTT2=
EXTT3=
EXTT4=
EXTT5=
EXTT6=
EXTT7=
EXTT8=
EXTT9=
PLAYORDER=
